<?xml version="1.0" encoding="iso-8859-1"?>
<!-- Generator: Adobe Illustrator 19.0.0, SVG Export Plug-In . SVG Version: 6.00 Build 0)  -->
<svg version="1.1" id="Layer_1" xmlns="http://www.w3.org/2000/svg" xmlns:xlink="http://www.w3.org/1999/xlink" x="0px" y="0px"
	 viewBox="0 0 512.004 512.004" style="enable-background:new 0 0 512.004 512.004;" xml:space="preserve">
<g>
	<path style="fill:#F9DE8F;" d="M143.037,335.962l9.771,19.797c0.214,0.433,0.627,0.733,1.104,0.802l21.848,3.174
		c1.203,0.175,1.683,1.653,0.813,2.502l-15.809,15.41c-0.346,0.337-0.503,0.822-0.422,1.298l3.732,21.76
		c0.205,1.198-1.052,2.112-2.128,1.546l-19.541-10.273c-0.427-0.224-0.938-0.224-1.364,0L121.5,402.25
		c-1.076,0.565-2.334-0.347-2.128-1.546l3.732-21.76c0.082-0.476-0.076-0.962-0.422-1.298l-15.809-15.41
		c-0.871-0.848-0.39-2.327,0.813-2.502l21.848-3.174c0.478-0.069,0.891-0.37,1.104-0.802l9.771-19.797
		C140.945,334.872,142.499,334.872,143.037,335.962z"/>
	<path style="fill:#F9DE8F;" d="M408.599,425.78l9.771,19.797c0.214,0.433,0.627,0.733,1.104,0.802l21.848,3.174
		c1.203,0.175,1.683,1.653,0.813,2.502l-15.809,15.41c-0.346,0.337-0.503,0.822-0.422,1.298l3.732,21.76
		c0.205,1.198-1.052,2.112-2.128,1.546l-19.541-10.273c-0.427-0.224-0.938-0.224-1.364,0l-19.541,10.273
		c-1.076,0.565-2.334-0.347-2.128-1.546l3.732-21.76c0.082-0.476-0.076-0.962-0.422-1.298l-15.809-15.41
		c-0.871-0.848-0.39-2.327,0.813-2.502l21.848-3.174c0.478-0.069,0.891-0.37,1.104-0.802l9.771-19.797
		C406.505,424.69,408.06,424.69,408.599,425.78z"/>
</g>
<g>
	<circle style="fill:#67D1D3;" cx="159.51" cy="187.303" r="24.04"/>
	<circle style="fill:#67D1D3;" cx="331.292" cy="102.859" r="24.04"/>
</g>
<circle style="fill:#F09EA0;" cx="478.517" cy="243.905" r="24.04"/>
<circle style="fill:#F9DE8F;" cx="115.872" cy="277.813" r="9.446"/>
<path style="fill:#F09EA0;" d="M221.5,468.042c-0.079,0-0.155,0-0.234-0.003c-5.212-0.127-9.334-4.454-9.208-9.665
	c0.381-15.766,11.795-25.575,20.964-33.456c9.059-7.785,14.573-13.038,14.768-20.349c0.22-8.239-6.549-15.231-14.389-23.326
	c-9.298-9.604-19.838-20.487-19.231-36.21c0.604-15.723,12.112-25.037,21.358-32.521c8.734-7.071,14.102-11.751,14.364-18.561
	c0.288-7.479-6.132-14.072-13.565-21.706c-9.469-9.727-20.204-20.75-20.066-37.436c0.138-16.831,11.24-27.435,21.033-36.792
	c7.896-7.543,14.714-14.057,14.719-22.305c0.005-8.637-7.313-15.444-15.786-23.325c-10.039-9.338-21.417-19.923-21.221-36.22
	c0.194-16.395,11.853-26.567,22.137-35.541c9.5-8.29,15.271-13.829,15.295-20.848c0.025-6.926-5.621-12.41-14.923-20.618
	c-1.106-0.977-2.215-1.955-3.31-2.941c-3.874-3.489-4.186-9.458-0.699-13.332c3.493-3.875,9.46-4.184,13.332-0.697
	c1.048,0.944,2.11,1.88,3.169,2.814c10.015,8.838,21.368,18.855,21.312,34.842c-0.058,16.069-11.588,26.13-21.762,35.007
	c-9.693,8.457-15.585,14.127-15.673,21.541c-0.094,7.941,6.996,14.535,15.203,22.17c10.225,9.513,21.816,20.293,21.806,37.161
	c-0.01,16.316-10.926,26.744-20.556,35.946c-8.115,7.752-15.124,14.448-15.196,23.297c-0.074,8.923,6.779,15.96,14.712,24.11
	c9.142,9.387,19.502,20.029,18.904,35.601c-0.603,15.717-12.107,25.028-21.351,32.512c-8.739,7.074-14.108,11.755-14.371,18.573
	c-0.295,7.659,6.297,14.468,13.93,22.35c9.436,9.746,20.131,20.791,19.697,36.964c-0.433,16.199-12.023,26.159-21.334,34.163
	c-8.846,7.604-14.23,12.715-14.397,19.594C230.809,463.964,226.608,468.042,221.5,468.042z"/>
<path style="fill:#F9DE8F;" d="M61.351,244.326c-0.026,0-0.053,0-0.079,0c-5.215-0.043-9.406-4.303-9.362-9.517
	c0.138-16.831,11.24-27.436,21.033-36.793c7.896-7.543,14.714-14.057,14.719-22.305c0.005-8.637-7.313-15.444-15.786-23.325
	c-10.039-9.338-21.417-19.922-21.221-36.219c0.195-16.395,11.853-26.567,22.137-35.541c9.5-8.288,15.271-13.829,15.295-20.848
	c0.025-6.929-5.622-12.413-14.925-20.621c-1.106-0.975-2.214-1.953-3.308-2.939c-3.874-3.488-4.186-9.458-0.699-13.332
	c3.488-3.875,9.46-4.185,13.332-0.699c1.047,0.943,2.107,1.878,3.166,2.811c10.018,8.838,21.371,18.856,21.315,34.846
	c-0.057,16.069-11.588,26.13-21.762,35.007c-9.692,8.457-15.583,14.127-15.673,21.541c-0.094,7.94,6.996,14.534,15.203,22.17
	c10.225,9.513,21.816,20.293,21.806,37.161c-0.01,16.316-10.926,26.744-20.556,35.946c-8.115,7.752-15.124,14.448-15.196,23.297
	C70.747,240.152,66.528,244.326,61.351,244.326z"/>
<path style="fill:#67D1D3;" d="M388.152,354.836c-0.123,0-0.245-0.003-0.37-0.006c-5.21-0.201-9.27-4.587-9.069-9.796
	c0.604-15.723,12.112-25.037,21.358-32.521c8.734-7.071,14.102-11.751,14.364-18.561c0.288-7.479-6.132-14.072-13.565-21.706
	c-9.469-9.727-20.204-20.75-20.066-37.436c0.138-16.831,11.24-27.435,21.033-36.792c7.896-7.543,14.714-14.057,14.719-22.305
	c0.005-8.637-7.313-15.444-15.786-23.325c-10.039-9.338-21.417-19.923-21.221-36.22c0.194-16.395,11.853-26.567,22.137-35.541
	c9.5-8.288,15.271-13.829,15.295-20.848c0.025-6.926-5.621-12.41-14.923-20.618c-1.106-0.977-2.215-1.955-3.312-2.941
	c-3.873-3.489-4.185-9.458-0.697-13.332c3.489-3.874,9.459-4.184,13.333-0.697c1.047,0.944,2.108,1.88,3.168,2.814
	c10.015,8.838,21.368,18.855,21.312,34.842c-0.058,16.069-11.588,26.13-21.762,35.007c-9.693,8.457-15.585,14.127-15.673,21.541
	c-0.094,7.941,6.996,14.535,15.203,22.17c10.225,9.513,21.816,20.293,21.806,37.161c-0.01,16.316-10.926,26.744-20.556,35.946
	c-8.115,7.752-15.124,14.448-15.196,23.297c-0.074,8.923,6.779,15.961,14.712,24.11c9.142,9.387,19.502,20.029,18.904,35.601
	c-0.603,15.717-12.107,25.028-21.351,32.512c-8.739,7.074-14.108,11.755-14.371,18.573
	C397.383,350.844,393.198,354.836,388.152,354.836z"/>
<circle style="fill:#F9DE8F;" cx="9.446" cy="67.66" r="9.446"/>
<circle style="fill:#F09EA0;" cx="331.292" cy="201.891" r="9.446"/>
<circle style="fill:#67D1D3;" cx="502.557" cy="36.142" r="9.446"/>
<g>
	<circle style="fill:#F09EA0;" cx="60.092" cy="466.272" r="9.446"/>
	<circle style="fill:#F09EA0;" cx="473.936" cy="383.528" r="9.446"/>
</g>
<g>
	<circle style="fill:#67D1D3;" cx="316.704" cy="374.088" r="9.446"/>
	<circle style="fill:#67D1D3;" cx="18.892" cy="290.601" r="9.446"/>
	<circle style="fill:#67D1D3;" cx="177.018" cy="55.034" r="9.446"/>
</g>
<g>
</g>
<g>
</g>
<g>
</g>
<g>
</g>
<g>
</g>
<g>
</g>
<g>
</g>
<g>
</g>
<g>
</g>
<g>
</g>
<g>
</g>
<g>
</g>
<g>
</g>
<g>
</g>
<g>
</g>
</svg>
