<svg height="512" viewBox="0 0 512 512" width="512" xmlns="http://www.w3.org/2000/svg"><g id="filled_outline" data-name="filled outline"><path d="m160 449.688v-105.688h96l.004 83.331z" fill="#5b3719"/><path d="m24 40h464v240h-464z" fill="#62ae88"/><path d="m400 72a56 56 0 0 0 -39.6 95.6l39.6-39.6z" fill="#ee9d0d"/><path d="m24 280h464v32h-464z" fill="#a3612d"/><path d="m24 264h464v16h-464z" fill="#5aa07d"/><path d="m184 128v64h32v-16h2a14 14 0 0 0 14-14v-34z" fill="#fdc9a6"/><path d="m175.748 112.5a29.855 29.855 0 0 1 26.7-16.5h29.552a16 16 0 0 1 16 16 16 16 0 0 1 -16 16h-32l-16 24-6.389-9.584a29.855 29.855 0 0 1 -1.863-29.916z" fill="#7a4922"/><path d="m80 408-36.6 15.688a32 32 0 0 0 -19.4 29.412v34.9h144v-34.9a32 32 0 0 0 -19.4-29.413l-36.6-15.687z" fill="#91a666"/><rect fill="#7a4922" height="72" rx="32" width="64" x="64" y="344"/><path d="m368 408-36.6 15.688a32 32 0 0 0 -19.4 29.412v34.9h144v-34.9a32 32 0 0 0 -19.395-29.413l-36.605-15.687z" fill="#ea2b2d"/><rect fill="#7a4922" height="72" rx="32" width="64" x="352" y="344"/><path d="m400 72v56l-39.6 39.6a56 56 0 1 0 39.6-95.6z" fill="#a86e09"/><path d="m272 180.364 72-52.364 24 24-67.911 58.21z" fill="#fdc9a6"/><path d="m272 180.364-16 11.636h-102a34 34 0 0 0 -34 34v18.458h40v99.542h96v-96l44.089-37.79z" fill="#92d1f7"/><path d="m192 224h80v64h-80z" fill="#0a71cd"/><path d="m120 244.458v41.542a26 26 0 0 0 26 26h62v-40h-48v-27.542z" fill="#fdc9a6"/><path d="m224 408-36.6 15.688a32 32 0 0 0 -19.4 29.412v34.9h144v-34.9a32 32 0 0 0 -19.395-29.413l-36.605-15.687z" fill="#cbcbcb"/><rect fill="#ee9d0d" height="72" rx="32" width="64" x="208" y="344"/><path d="m160 312h48.002v8h-48.002z" fill="#5ebef7"/><path d="m208 288h48.002v8h-48.002z" fill="#5ebef7"/><path d="m488 32h-464a8 8 0 0 0 -8 8v272a8 8 0 0 0 8 8h128v96.45c-.083-.036-.16-.08-.243-.115l-22.757-9.755a39.765 39.765 0 0 0 7-22.58v-8a40 40 0 0 0 -80 0v8a39.765 39.765 0 0 0 7.005 22.58l-22.762 9.755a39.954 39.954 0 0 0 -24.243 36.765v34.9a8 8 0 0 0 8 8h432a8 8 0 0 0 8-8v-34.9a39.954 39.954 0 0 0 -24.243-36.766l-22.757-9.754a39.765 39.765 0 0 0 7-22.58v-8a40 40 0 0 0 -80 0v8a39.765 39.765 0 0 0 7 22.58l-22.762 9.755a39.939 39.939 0 0 0 -16.238 12.774 39.939 39.939 0 0 0 -16.243-12.774l-22.757-9.755a39.765 39.765 0 0 0 7-22.58v-8a39.962 39.962 0 0 0 -16-31.978v-24.022h224a8 8 0 0 0 8-8v-272a8 8 0 0 0 -8-8zm-128 344a24 24 0 0 1 48 0v8a24 24 0 0 1 -48 0zm-40 77.1a23.974 23.974 0 0 1 14.546-22.06l29.254-12.54a39.863 39.863 0 0 0 40.4 0l29.254 12.538a23.974 23.974 0 0 1 14.546 22.062v26.9h-16v-24a8 8 0 0 0 -16 0v24h-64v-24a8 8 0 0 0 -16 0v24h-16zm-288-149.1v-16h80.063a33.777 33.777 0 0 0 5.112 16zm114 0a18.021 18.021 0 0 1 -18-18v-33.542h24v19.542a8 8 0 0 0 8 8h40v24zm56.451-200h29.549a8 8 0 0 1 0 16h-32a8 8 0 0 0 -6.656 3.562l-9.344 14.011a21.908 21.908 0 0 1 -1.1-21.492 21.737 21.737 0 0 1 19.551-12.081zm21.549 32v26a6.006 6.006 0 0 1 -6 6h-2a8 8 0 0 0 -8 8v8h-16v-29.578l12.281-18.422zm32 64a8 8 0 0 0 4.7-1.53l10.3-7.49 17.514 18.61-10.577 9.066a7.973 7.973 0 0 0 -5.937-2.656h-80a8 8 0 0 0 -8 8v40h-16v-19.542a8 8 0 0 0 -8-8h-32v-10.458a26.029 26.029 0 0 1 26-26zm136-75.313-20 20-8.686-8.687 18.343-18.343a8 8 0 0 0 -11.314-11.314l-18.205 18.2a48.076 48.076 0 0 1 39.862-43.864zm13.657 8.97a8 8 0 0 0 2.343-5.657v-47.321a48 48 0 0 1 -8 95.321 47.588 47.588 0 0 1 -27.809-8.877zm-49.423 17.891-55.553 47.618-16.632-17.673 59.128-43zm-108.234 185.257c-2.586-.527-80-.805-80-.805v-16h40a8 8 0 0 0 8-8v-16h32zm16 39.195v8a24 24 0 0 1 -48 0v-8a24 24 0 0 1 48 0zm-40-96h-8v-8a8 8 0 0 0 -8-8h-8v-32h24zm-152 96a24 24 0 0 1 48 0v8a24 24 0 0 1 -48 0zm88 104h-16v-24a8 8 0 0 0 -16 0v24h-64v-24a8 8 0 0 0 -16 0v24h-16v-26.9a23.974 23.974 0 0 1 14.546-22.06l29.254-12.54a39.866 39.866 0 0 0 40.4 0l29.254 12.537a23.974 23.974 0 0 1 14.546 22.063zm8-50.891-.04-.057c.026-.262.04-.529.04-.8v-76.252h40.022a39.788 39.788 0 0 0 -8.022 24v8a39.765 39.765 0 0 0 7 22.58l-22.762 9.755a39.939 39.939 0 0 0 -16.238 12.774zm121.454 1.932a23.974 23.974 0 0 1 14.546 22.059v26.9h-16v-24a8 8 0 0 0 -16 0v24h-64v-24a8 8 0 0 0 -16 0v24h-16v-26.9a23.974 23.974 0 0 1 14.546-22.06l29.254-12.54a39.863 39.863 0 0 0 40.4 0zm-49.454-151.041v-48h24v48zm240 24h-216v-8h8a8 8 0 0 0 8-8h200zm0-32h-200v-34.035l74.676-64.007a7.95 7.95 0 0 0 2.374 1.477 64 64 0 1 0 -20.9-51.619l-82.75 60.184h-29.4v-.832a22.037 22.037 0 0 0 16-21.168v-27.376a24 24 0 0 0 -8-46.624h-29.549a37.649 37.649 0 0 0 -33.858 20.925 37.938 37.938 0 0 0 2.361 37.927l5.046 7.57v29.578h-22a42.047 42.047 0 0 0 -42 42v46h-80v-224h448z"/><path d="m368 224h8a8 8 0 0 0 0-16h-8a8 8 0 0 0 0 16z"/><path d="m448 208h-40a8 8 0 0 0 0 16h40a8 8 0 0 0 0-16z"/><path d="m432 240h-64a8 8 0 0 0 0 16h64a8 8 0 0 0 0-16z"/></g></svg>