<svg height="512" viewBox="0 0 64 64" width="512" xmlns="http://www.w3.org/2000/svg"><g fill="#ffc569"><path d="m44 45a1 1 0 0 1 -.731-1.683l14-15a1 1 0 0 1 1.462 1.366l-14 15a1 1 0 0 1 -.731.317z"/><path d="m20 45a1 1 0 0 1 -.731-.317l-14-15a1 1 0 0 1 1.462-1.366l14 15a1 1 0 0 1 -.731 1.683z"/><path d="m51 46a1 1 0 0 1 -.707-1.707l5-5a1 1 0 0 1 1.414 1.414l-5 5a1 1 0 0 1 -.707.293z"/><path d="m13 46a1 1 0 0 1 -.707-.293l-5-5a1 1 0 1 1 1.414-1.414l5 5a1 1 0 0 1 -.707 1.707z"/></g><path d="m52 16v8a1 1 0 0 1 -2 0v-8z" fill="#34b2e4"/><path d="m32 43a1 1 0 0 1 -1-1v-2a1 1 0 0 1 2 0v2a1 1 0 0 1 -1 1z" fill="#ffc569"/><path d="m37 43a1 1 0 0 1 -.707-1.707l2-2a1 1 0 0 1 1.414 1.414l-2 2a1 1 0 0 1 -.707.293z" fill="#ffc569"/><path d="m27 43a1 1 0 0 1 -.707-.293l-2-2a1 1 0 0 1 1.414-1.414l2 2a1 1 0 0 1 -.707 1.707z" fill="#ffc569"/><path d="m44 34a37.953 37.953 0 0 1 -24 0v-18h24z" fill="#34b2e4"/><path d="m44 22.857v-6.857h-24v18a37.953 37.953 0 0 0 24 0v-3a37.928 37.928 0 0 1 -12.173 1.946 8.947 8.947 0 0 1 -8.817-8.8l6.626 2.84a6 6 0 0 0 4.728 0z" fill="#2070a1"/><path d="m32 25 21-9-21-9-21 9z" fill="#92e5eb"/><circle cx="51" cy="25" fill="#68cbf2" r="2.5"/><path d="m3 57v4l25-2.586v.586a2 2 0 0 0 2 2h2v-8.772a1 1 0 0 0 -1.2-.979z" fill="#80e1b8"/><path d="m32 52.228v8.772h2a2 2 0 0 0 2-2v-.586l25 2.586v-4l-27.8-5.751a1 1 0 0 0 -1.2.979z" fill="#80e1b8"/><path d="m3 59v2l25-2.586v.586a2 2 0 0 0 2 2h2v-3.088a4 4 0 0 0 -4.81-3.912z" fill="#3aba80"/><path d="m32 57.912v3.088h2a2 2 0 0 0 2-2v-.586l25 2.586v-2l-24.19-5a4 4 0 0 0 -4.81 3.912z" fill="#3aba80"/><path d="m58 57-26-5v-1.781a4 4 0 0 1 5.04-3.862l18.74 5.043a3 3 0 0 1 2.22 2.9z" fill="#92e5eb"/><path d="m6 57 26-5v-1.781a4 4 0 0 0 -5.04-3.862l-18.74 5.043a3 3 0 0 0 -2.22 2.9z" fill="#92e5eb"/><path d="m37.04 49.357a4 4 0 0 0 -4.856 2.678l25.791 4.965a3 3 0 0 0 -2.2-2.593z" fill="#34b2e4"/><path d="m26.96 49.357-18.74 5.043a3 3 0 0 0 -2.195 2.6l25.791-4.96a4 4 0 0 0 -4.856-2.683z" fill="#34b2e4"/><path d="m44.454 14.948a23.994 23.994 0 0 1 -18.908 0l-6.046-2.591-8.5 3.643 21 9 21-9-5.5-2.357z" fill="#68cbf2"/><path d="m52.25 26.25a2.5 2.5 0 0 1 -2.5-2.5 2.474 2.474 0 0 1 .225-1.025 2.5 2.5 0 1 0 3.3 3.3 2.474 2.474 0 0 1 -1.025.225z" fill="#34b2e4"/></svg>