<svg id="Capa_1" enable-background="new 0 0 483.258 483.258" height="512" viewBox="0 0 483.258 483.258" width="512" xmlns="http://www.w3.org/2000/svg"><g><g id="icon_84_"><path d="m40.434 471.512-40.434 11.746 11.745-40.435z" fill="#828a9e"/><path d="m110.335 451.227-69.901 20.285-28.689-28.689 20.285-69.901z" fill="#fed19a"/><path d="m5.945 199.212h445.46v110.736h-445.46z" fill="#2cbfae" transform="matrix(.707 -.707 .707 .707 -113.038 236.263)"/><path d="m25.523 246.476h445.46v55.368h-445.46z" fill="#16a897" transform="matrix(.707 -.707 .707 .707 -121.149 255.841)"/><path d="m380.037 30.456h34.788v110.736h-34.788z" fill="#eeefee" transform="matrix(.707 -.707 .707 .707 55.718 306.164)"/><path d="m477.361 84.201-33.35 33.35-78.305-78.305 33.35-33.35c7.862-7.862 20.609-7.862 28.47 0l49.834 49.834c7.863 7.863 7.863 20.609.001 28.471z" fill="#ef5261"/></g></g></svg>